<svg width="799" height="101" viewBox="0 0 799 101" fill="none" xmlns="http://www.w3.org/2000/svg">
<g style="mix-blend-mode:color-dodge">
<path d="M762.57 86V1.76001H777.962V75.392H798.346V86H762.57Z" fill="#EEEEEE"/>
</g>
<g style="mix-blend-mode:color-dodge">
<path d="M732.396 87.144C727.335 87.144 723.105 86.1733 719.708 84.232C716.311 82.2213 713.745 79.3093 712.012 75.496C710.279 71.6826 709.308 67.0026 709.1 61.456L722.308 58.856C722.447 62.1146 722.828 64.992 723.452 67.488C724.145 69.984 725.151 71.9253 726.468 73.312C727.855 74.6293 729.657 75.288 731.876 75.288C734.372 75.288 736.14 74.56 737.18 73.104C738.22 71.5786 738.74 69.672 738.74 67.384C738.74 63.7093 737.908 60.6933 736.244 58.336C734.58 55.9786 732.361 53.6213 729.588 51.264L718.98 41.904C715.999 39.3386 713.607 36.496 711.804 33.376C710.071 30.1866 709.204 26.2693 709.204 21.624C709.204 14.968 711.145 9.8373 715.028 6.23196C718.911 2.62663 724.215 0.823975 730.94 0.823975C734.892 0.823975 738.185 1.44795 740.82 2.69595C743.455 3.87462 745.535 5.53862 747.06 7.68796C748.655 9.83729 749.833 12.2986 750.596 15.072C751.359 17.776 751.844 20.6533 752.052 23.704L738.948 25.992C738.809 23.3573 738.497 21 738.012 18.92C737.596 16.84 736.799 15.2106 735.62 14.032C734.511 12.8533 732.847 12.264 730.628 12.264C728.34 12.264 726.572 13.0266 725.324 14.552C724.145 16.008 723.556 17.8453 723.556 20.064C723.556 22.9066 724.145 25.264 725.324 27.136C726.503 28.9386 728.201 30.8106 730.42 32.752L740.924 42.008C744.391 44.92 747.337 48.352 749.764 52.304C752.26 56.1866 753.508 60.9013 753.508 66.448C753.508 70.4693 752.607 74.04 750.804 77.16C749.071 80.28 746.609 82.7413 743.42 84.544C740.3 86.2773 736.625 87.144 732.396 87.144Z" fill="#EEEEEE"/>
</g>
<g style="mix-blend-mode:color-dodge">
<path d="M667.812 86V1.76001H683.205V75.392H703.589V86H667.812Z" fill="#EEEEEE"/>
</g>
<g style="mix-blend-mode:color-dodge">
<path d="M630.831 87.144C625.285 87.144 620.882 85.9653 617.623 83.608C614.365 81.2506 612.007 77.9226 610.551 73.624C609.165 69.256 608.471 64.1253 608.471 58.232V29.944C608.471 23.912 609.165 18.712 610.551 14.344C611.938 9.97596 614.365 6.64795 617.831 4.35995C621.367 2.00262 626.221 0.823975 632.391 0.823975C638.146 0.823975 642.722 1.79462 646.119 3.73596C649.517 5.6773 651.943 8.48531 653.399 12.16C654.925 15.7653 655.687 20.168 655.687 25.368V29.736H641.023V24.952C641.023 22.248 640.815 19.9253 640.399 17.984C640.053 16.0426 639.29 14.5866 638.111 13.616C637.002 12.576 635.165 12.056 632.599 12.056C629.895 12.056 627.919 12.7146 626.671 14.032C625.493 15.3493 624.73 17.0826 624.383 19.232C624.106 21.3813 623.967 23.7386 623.967 26.304V61.56C623.967 64.472 624.21 67.0026 624.695 69.152C625.181 71.3013 626.082 72.9653 627.399 74.144C628.717 75.2533 630.589 75.808 633.015 75.808C635.511 75.808 637.418 75.184 638.735 73.936C640.053 72.688 640.954 70.9546 641.439 68.736C641.994 66.5173 642.271 63.8826 642.271 60.832V52.928H633.223V43.256H656.103V86H646.223L645.079 77.68C643.97 80.4533 642.271 82.7413 639.983 84.544C637.765 86.2773 634.714 87.144 630.831 87.144Z" fill="#EEEEEE"/>
</g>
<g style="mix-blend-mode:color-dodge">
<path d="M558.181 86.936C553.12 86.936 548.96 85.584 545.701 82.88C542.443 80.176 540.12 76.224 538.733 71.024L549.237 66.968C550.069 70.2267 551.179 72.7227 552.565 74.456C553.952 76.1894 555.755 77.056 557.973 77.056C559.637 77.056 560.885 76.64 561.717 75.808C562.549 74.976 562.965 73.832 562.965 72.376C562.965 70.712 562.445 69.2214 561.405 67.904C560.435 66.5174 558.736 64.8187 556.309 62.808L549.029 56.672C546.395 54.384 544.245 52.0614 542.581 49.704C540.987 47.2774 540.189 44.2614 540.189 40.656C540.189 37.3974 540.917 34.624 542.373 32.336C543.899 29.9787 545.944 28.176 548.509 26.928C551.144 25.6107 554.056 24.952 557.245 24.952C562.099 24.952 565.981 26.408 568.893 29.32C571.875 32.1627 573.781 35.9067 574.613 40.552L565.357 44.504C565.011 42.84 564.491 41.3147 563.797 39.928C563.173 38.472 562.341 37.2934 561.301 36.392C560.261 35.4907 559.048 35.04 557.661 35.04C556.205 35.04 555.027 35.4907 554.125 36.392C553.293 37.2934 552.877 38.4374 552.877 39.824C552.877 41.0027 553.363 42.216 554.333 43.464C555.373 44.712 556.829 46.1334 558.701 47.728L566.085 54.384C567.68 55.7707 569.205 57.2614 570.661 58.856C572.117 60.4507 573.331 62.2534 574.301 64.264C575.272 66.2054 575.757 68.4587 575.757 71.024C575.757 74.4907 574.96 77.4027 573.365 79.76C571.84 82.1174 569.725 83.92 567.021 85.168C564.387 86.3467 561.44 86.936 558.181 86.936Z" fill="#EEEEEE"/>
</g>
<g style="mix-blend-mode:color-dodge">
<path d="M516.541 86.936C511.479 86.936 507.319 85.584 504.061 82.88C500.802 80.176 498.479 76.224 497.093 71.024L507.597 66.968C508.429 70.2267 509.538 72.7227 510.925 74.456C512.311 76.1894 514.114 77.056 516.333 77.056C517.997 77.056 519.245 76.64 520.077 75.808C520.909 74.976 521.325 73.832 521.325 72.376C521.325 70.712 520.805 69.2214 519.765 67.904C518.794 66.5174 517.095 64.8187 514.669 62.808L507.389 56.672C504.754 54.384 502.605 52.0614 500.941 49.704C499.346 47.2774 498.549 44.2614 498.549 40.656C498.549 37.3974 499.277 34.624 500.733 32.336C502.258 29.9787 504.303 28.176 506.869 26.928C509.503 25.6107 512.415 24.952 515.605 24.952C520.458 24.952 524.341 26.408 527.253 29.32C530.234 32.1627 532.141 35.9067 532.973 40.552L523.717 44.504C523.37 42.84 522.85 41.3147 522.157 39.928C521.533 38.472 520.701 37.2934 519.661 36.392C518.621 35.4907 517.407 35.04 516.021 35.04C514.565 35.04 513.386 35.4907 512.485 36.392C511.653 37.2934 511.237 38.4374 511.237 39.824C511.237 41.0027 511.722 42.216 512.693 43.464C513.733 44.712 515.189 46.1334 517.061 47.728L524.445 54.384C526.039 55.7707 527.565 57.2614 529.021 58.856C530.477 60.4507 531.69 62.2534 532.661 64.264C533.631 66.2054 534.117 68.4587 534.117 71.024C534.117 74.4907 533.319 77.4027 531.725 79.76C530.199 82.1174 528.085 83.92 525.381 85.168C522.746 86.3467 519.799 86.936 516.541 86.936Z" fill="#EEEEEE"/>
</g>
<g style="mix-blend-mode:color-dodge">
<path d="M471.999 86.936C467.492 86.936 463.817 86.104 460.975 84.44C458.132 82.7067 456.017 80.2107 454.631 76.952C453.313 73.624 452.655 69.6374 452.655 64.992V46.896C452.655 42.112 453.313 38.0907 454.631 34.832C456.017 31.5734 458.132 29.112 460.975 27.448C463.887 25.784 467.561 24.952 471.999 24.952C476.783 24.952 480.492 25.8534 483.127 27.656C485.831 29.4587 487.737 32.0934 488.847 35.56C490.025 38.9574 490.615 43.1174 490.615 48.04V56.568H466.695V68.424C466.695 70.3654 466.868 71.96 467.215 73.208C467.631 74.456 468.255 75.3574 469.087 75.912C469.919 76.4667 470.924 76.744 472.103 76.744C473.351 76.744 474.356 76.4667 475.119 75.912C475.882 75.288 476.436 74.4214 476.783 73.312C477.13 72.1334 477.303 70.6774 477.303 68.944V63.952H490.511V68.008C490.511 74.1094 488.985 78.7894 485.935 82.048C482.884 85.3067 478.239 86.936 471.999 86.936ZM466.695 49.6H477.303V43.88C477.303 41.8 477.13 40.136 476.783 38.888C476.436 37.5707 475.882 36.6347 475.119 36.08C474.356 35.456 473.282 35.144 471.895 35.144C470.647 35.144 469.641 35.456 468.879 36.08C468.116 36.704 467.561 37.744 467.215 39.2C466.868 40.656 466.695 42.736 466.695 45.44V49.6Z" fill="#EEEEEE"/>
</g>
<g style="mix-blend-mode:color-dodge">
<path d="M410.961 86V1.76001H426.353V75.392H446.737V86H410.961Z" fill="#EEEEEE"/>
</g>
<g style="mix-blend-mode:color-dodge">
<path d="M363.74 100.144L362.284 94.944C364.156 94.3893 365.75 93.384 367.068 91.928C368.385 90.5413 369.044 88.5653 369.044 86H361.556V71.96H375.388V84.752C375.388 89.1893 374.417 92.656 372.476 95.152C370.534 97.7173 367.622 99.3813 363.74 100.144Z" fill="#EEEEEE"/>
</g>
<g style="mix-blend-mode:color-dodge">
<path d="M337.283 86.936C332.222 86.936 328.062 85.584 324.803 82.88C321.544 80.176 319.222 76.224 317.835 71.024L328.339 66.968C329.171 70.2267 330.28 72.7227 331.667 74.456C333.054 76.1894 334.856 77.056 337.075 77.056C338.739 77.056 339.987 76.64 340.819 75.808C341.651 74.976 342.067 73.832 342.067 72.376C342.067 70.712 341.547 69.2214 340.507 67.904C339.536 66.5174 337.838 64.8187 335.411 62.808L328.131 56.672C325.496 54.384 323.347 52.0614 321.683 49.704C320.088 47.2774 319.291 44.2614 319.291 40.656C319.291 37.3974 320.019 34.624 321.475 32.336C323 29.9787 325.046 28.176 327.611 26.928C330.246 25.6107 333.158 24.952 336.347 24.952C341.2 24.952 345.083 26.408 347.995 29.32C350.976 32.1627 352.883 35.9067 353.715 40.552L344.459 44.504C344.112 42.84 343.592 41.3147 342.899 39.928C342.275 38.472 341.443 37.2934 340.403 36.392C339.363 35.4907 338.15 35.04 336.763 35.04C335.307 35.04 334.128 35.4907 333.227 36.392C332.395 37.2934 331.979 38.4374 331.979 39.824C331.979 41.0027 332.464 42.216 333.435 43.464C334.475 44.712 335.931 46.1334 337.803 47.728L345.187 54.384C346.782 55.7707 348.307 57.2614 349.763 58.856C351.219 60.4507 352.432 62.2534 353.403 64.264C354.374 66.2054 354.859 68.4587 354.859 71.024C354.859 74.4907 354.062 77.4027 352.467 79.76C350.942 82.1174 348.827 83.92 346.123 85.168C343.488 86.3467 340.542 86.936 337.283 86.936Z" fill="#EEEEEE"/>
</g>
<g style="mix-blend-mode:color-dodge">
<path d="M264.688 86L281.64 41.28L265.208 1.76001H279.56L290.48 27.864L300.048 1.76001H313.36L297.136 44.192L314.608 86H300.256L288.296 57.712L277.896 86H264.688Z" fill="#EEEEEE"/>
</g>
<g style="mix-blend-mode:color-dodge">
<path d="M227.031 86V1.76001H261.663V12.368H242.423V36.912H258.127V47.624H242.423V86H227.031Z" fill="#EEEEEE"/>
</g>
<g style="mix-blend-mode:color-dodge">
<path d="M172.593 86.936C168.086 86.936 164.411 86.104 161.569 84.44C158.726 82.7067 156.611 80.2107 155.225 76.952C153.907 73.624 153.249 69.6374 153.249 64.992V46.896C153.249 42.112 153.907 38.0907 155.225 34.832C156.611 31.5734 158.726 29.112 161.569 27.448C164.481 25.784 168.155 24.952 172.593 24.952C177.377 24.952 181.086 25.8534 183.721 27.656C186.425 29.4587 188.331 32.0934 189.441 35.56C190.619 38.9574 191.209 43.1174 191.209 48.04V56.568H167.289V68.424C167.289 70.3654 167.462 71.96 167.809 73.208C168.225 74.456 168.849 75.3574 169.681 75.912C170.513 76.4667 171.518 76.744 172.697 76.744C173.945 76.744 174.95 76.4667 175.713 75.912C176.475 75.288 177.03 74.4214 177.377 73.312C177.723 72.1334 177.897 70.6774 177.897 68.944V63.952H191.105V68.008C191.105 74.1094 189.579 78.7894 186.529 82.048C183.478 85.3067 178.833 86.936 172.593 86.936ZM167.289 49.6H177.897V43.88C177.897 41.8 177.723 40.136 177.377 38.888C177.03 37.5707 176.475 36.6347 175.713 36.08C174.95 35.456 173.875 35.144 172.489 35.144C171.241 35.144 170.235 35.456 169.473 36.08C168.71 36.704 168.155 37.744 167.809 39.2C167.462 40.656 167.289 42.736 167.289 45.44V49.6Z" fill="#EEEEEE"/>
</g>
<g style="mix-blend-mode:color-dodge">
<path d="M118.041 86V25.888H132.185V35.144C134.265 31.608 136.345 29.0774 138.425 27.552C140.505 25.9574 142.793 25.16 145.289 25.16C145.705 25.16 146.051 25.1947 146.329 25.264C146.675 25.264 147.057 25.2987 147.473 25.368V40.032C146.641 39.6853 145.705 39.408 144.665 39.2C143.694 38.9227 142.689 38.784 141.649 38.784C139.777 38.784 138.078 39.2347 136.553 40.136C135.027 41.0373 133.571 42.528 132.185 44.608V86H118.041Z" fill="#EEEEEE"/>
</g>
<g style="mix-blend-mode:color-dodge">
<path d="M88.6003 86.936C84.2323 86.936 80.627 86.1387 77.7843 84.544C74.9417 82.88 72.7923 80.488 71.3363 77.368C69.9497 74.248 69.2563 70.4694 69.2563 66.032V45.856C69.2563 41.4187 69.9497 37.64 71.3363 34.52C72.7923 31.4 74.9417 29.0427 77.7843 27.448C80.627 25.784 84.2323 24.952 88.6003 24.952C92.9683 24.952 96.5737 25.784 99.4164 27.448C102.328 29.0427 104.478 31.4 105.864 34.52C107.32 37.64 108.048 41.4187 108.048 45.856V66.032C108.048 70.4694 107.32 74.248 105.864 77.368C104.478 80.488 102.328 82.88 99.4164 84.544C96.5737 86.1387 92.9683 86.936 88.6003 86.936ZM88.7043 77.16C90.299 77.16 91.4777 76.7094 92.2404 75.808C93.003 74.9067 93.4883 73.6934 93.6964 72.168C93.9043 70.5734 94.0083 68.84 94.0083 66.968V44.92C94.0083 43.048 93.9043 41.3494 93.6964 39.824C93.4883 38.2987 93.003 37.0854 92.2404 36.184C91.4777 35.2134 90.299 34.728 88.7043 34.728C87.1097 34.728 85.931 35.2134 85.1683 36.184C84.4057 37.0854 83.8857 38.2987 83.6083 39.824C83.4003 41.3494 83.2964 43.048 83.2964 44.92V66.968C83.2964 68.84 83.4003 70.5734 83.6083 72.168C83.8857 73.6934 84.4057 74.9067 85.1683 75.808C85.931 76.7094 87.1097 77.16 88.7043 77.16Z" fill="#EEEEEE"/>
</g>
<g style="mix-blend-mode:color-dodge">
<path d="M0.13623 86L1.59222 1.76001H17.5042L29.4642 60.104L41.9442 1.76001H57.3362L58.8962 86H47.4562L46.2082 27.448L34.2482 86H24.9922L12.8242 27.24L11.6802 86H0.13623Z" fill="#EEEEEE"/>
</g>
</svg>
