{
	"buffers":[{
		"uri":"data:application/octet-stream;base64,",
		"byteLength":1031628
	}],
	"asset":{
		"version":"2.0",
		"generator":"Maxon Cinema 4D 2024.4.0 (#200000219)"
	},
	"scenes":[{
		"nodes":[0,
		1]
	}],
	"nodes":[{
		"name":"GSG_REDSHIFT_StarterScene",
		"children":[2,
		3]
	},
	{
		"name":"HEART_REMESH",
		"mesh":0,
		"translation":[0.0,
		0.25,
		0.0],
		"rotation":[0.0,
		0.0,
		0.0,
		-1.0],
		"scale":[1.0,
		1.0,
		1.0]
	},
	{
		"name":"CAMS",
		"children":[4,
		5,
		6]
	},
	{
		"name":"SAVE"
	},
	{
		"name":"Cam100mm",
		"rotation":[0.3420201539993286,
		-8.346147030937234e-16,
		-3.0377491988471717e-16,
		-0.9396926164627075],
		"camera":0,
		"translation":[1.5437032526899775e-15,
		1.600000023841858,
		1.600000023841858],
		"scale":[1.0,
		1.0,
		1.0]
	},
	{
		"name":"Cam75mm",
		"rotation":[-0.026077337563037874,
		-0.08712587505578995,
		-0.002281471388414502,
		0.9958533048629761],
		"camera":1,
		"translation":[-0.25,
		0.3199999928474426,
		1.5],
		"scale":[1.0,
		1.0,
		1.0]
	},
	{
		"name":"Cam50mm",
		"rotation":[-0.09750748425722122,
		-0.8917619585990906,
		-0.3768438696861267,
		0.23074135184288026],
		"camera":2,
		"translation":[-0.09092245250940323,
		0.8739641308784485,
		-0.2114240825176239],
		"scale":[1.0,
		1.0,
		1.0]
	}],
	"meshes":[{
		"name":"HEART_REMESH",
		"primitives":[{
			"attributes":{
				"POSITION":1,
				"NORMAL":2,
				"TEXCOORD_0":3
			},
			"indices":0
		}]
	}],
	"cameras":[{
		"type":"perspective",
		"perspective":{
			"znear":0.009999999776482582,
			"zfar":10000000000.0,
			"aspectRatio":1.0,
			"yfov":0.3561858832836151
		}
	},
	{
		"type":"perspective",
		"perspective":{
			"znear":0.009999999776482582,
			"zfar":10000000000.0,
			"aspectRatio":1.0,
			"yfov":0.4710899591445923
		}
	},
	{
		"type":"perspective",
		"perspective":{
			"znear":0.009999999776482582,
			"zfar":10000000000.0,
			"aspectRatio":1.0,
			"yfov":0.691111147403717
		}
	}],
	"accessors":[{
		"bufferView":0,
		"type":"SCALAR",
		"componentType":5123,
		"count":30342,
		"byteOffset":0,
		"min":[0],
		"max":[30341]
	},
	{
		"bufferView":1,
		"type":"VEC3",
		"componentType":5126,
		"count":30342,
		"byteOffset":0,
		"min":[-0.09824929386377335,
		-0.08047811686992645,
		-0.0393226183950901],
		"max":[0.09824121743440628,
		0.08143860846757889,
		0.039325300604104999]
	},
	{
		"bufferView":1,
		"type":"VEC3",
		"componentType":5126,
		"count":30342,
		"byteOffset":12,
		"min":[-0.9996733069419861,
		-0.9997038245201111,
		-0.9999259114265442],
		"max":[0.9990140795707703,
		0.9997410178184509,
		0.999976396560669]
	},
	{
		"bufferView":1,
		"type":"VEC2",
		"componentType":5126,
		"count":30342,
		"byteOffset":24,
		"min":[0.0060423268005251888,
		0.0060423268005251888],
		"max":[0.5934585332870483,
		0.9939576387405396]
	}],
	"bufferViews":[{
		"buffer":0,
		"byteOffset":0,
		"byteLength":60684,
		"target":34963
	},
	{
		"buffer":0,
		"byteOffset":60684,
		"byteLength":970944,
		"target":34962,
		"byteStride":32
	}]
}