<svg width="322" height="43" viewBox="0 0 322 43" fill="none" xmlns="http://www.w3.org/2000/svg">
<path d="M114.911 26.6502C111.991 25.1402 109.151 23.4602 106.181 22.0502C104.401 21.2002 103.471 20.0302 103.941 18.1202C104.381 16.3902 105.291 15.2302 107.491 15.3402C109.791 15.4602 111.051 16.4702 111.501 18.5702C111.841 20.1402 112.941 20.9902 114.161 20.3102C114.941 19.8802 115.201 18.2702 115.381 17.1302C115.461 16.6302 114.881 15.7702 114.361 15.4902C112.481 14.4702 110.511 13.6302 108.951 12.9102C106.511 13.5002 104.801 13.8002 103.171 14.3502C100.501 15.2402 99.8105 17.6602 99.3705 20.0402C99.0505 21.7602 101.231 24.9902 102.951 25.6702C105.561 26.7102 108.241 27.5802 110.811 28.7102C112.721 29.5502 113.851 33.1202 112.861 34.5602C111.931 35.9202 108.701 36.2902 107.101 35.0202C106.311 34.3902 105.831 33.3402 105.291 32.4402C104.311 30.8002 102.971 29.8002 101.001 30.1902C100.391 30.3102 99.5305 30.8302 99.3905 31.3402C98.8805 33.1402 99.8905 34.1402 101.391 35.1602C105.121 37.7002 109.171 37.8202 113.301 37.0702C115.181 36.7302 116.941 35.4402 117.041 33.2802C117.151 30.9002 117.831 28.1702 114.911 26.6602V26.6502Z" fill="#D6CDA2"/>
<path d="M83.5102 22.0499C82.9902 22.0699 82.5002 22.8799 81.9902 23.3299C82.4302 23.7399 82.8502 24.4599 83.3302 24.4999C86.1502 24.7799 88.9902 24.9399 91.8202 25.0599C93.7502 25.1399 94.6302 24.2399 94.0602 21.9899C90.5702 21.9899 87.0302 21.9399 83.5102 22.0499Z" fill="#D6CDA2"/>
<path d="M228.27 26.0201C227.97 26.8001 228.1 27.7501 228.03 28.6201C228.59 28.9201 229.15 29.2301 229.71 29.5301C229.99 28.5601 230.26 27.5901 230.54 26.6301L230.52 26.6501C231.46 25.1501 232.4 23.6501 233.34 22.1501C233.13 22.0001 232.92 21.8401 232.7 21.6901C231.97 22.2701 231.24 22.8501 230.51 23.4201C230 22.6801 229.5 21.9501 228.84 20.9901C229.97 20.6701 230.73 20.4501 231.53 20.2301C230.28 18.6901 229.5 18.5701 226.03 19.4501C226.51 20.2701 226.84 21.0601 227.37 21.6601C228.53 22.9701 228.92 24.3101 228.27 26.0201Z" fill="#D6CDA2"/>
<path d="M143.651 34.4702C143.261 32.9502 143.121 31.3502 143.051 29.7702C142.921 26.7902 142.161 24.2202 139.231 23.0002C139.461 22.4802 139.901 21.9902 139.801 21.6502C139.411 20.3402 139.031 18.9702 138.311 17.8402C137.601 16.7302 136.261 14.9302 135.581 15.0802C133.221 15.6202 131.031 16.8902 128.781 17.8702C128.291 17.1902 127.801 16.5102 127.311 15.8302C128.101 13.7502 128.071 11.8402 126.191 10.3002C126.051 10.1702 125.911 10.0302 125.771 9.90016C124.731 9.29016 123.681 8.67016 122.461 7.96016C121.881 6.88016 121.301 5.81016 120.711 4.73016C121.251 4.42016 121.781 4.11016 122.521 3.68016C121.201 2.62016 120.111 1.74016 118.761 0.660156C119.231 2.48016 119.531 3.62016 119.821 4.76016C119.631 5.43016 119.451 6.10016 119.261 6.77016C119.381 6.96016 119.501 7.15016 119.621 7.34016C120.331 7.67016 121.031 8.00016 121.741 8.34016C122.241 10.5102 122.691 12.4402 123.131 14.3602C122.841 15.3902 122.551 16.4102 122.271 17.4402C122.271 18.1202 122.271 18.8002 122.271 19.4702C122.271 20.3202 122.271 21.1702 122.271 22.0102C122.271 22.1802 122.271 22.3502 122.271 22.5202C122.401 23.5402 122.521 24.5702 122.651 25.5902C122.661 26.2602 122.681 26.9302 122.691 27.6002V29.6402C122.891 30.4902 123.091 31.3302 123.291 32.1802C123.301 33.0302 123.311 33.8702 123.331 34.7202C122.781 35.0802 122.231 35.4302 121.691 35.7902C119.901 36.6002 121.441 37.5402 121.881 37.5902C124.181 37.8102 126.501 37.7702 128.821 37.8102C129.481 37.6102 130.151 37.4202 130.811 37.2202C130.401 36.6102 130.001 35.9902 129.591 35.3802C129.331 35.0002 128.921 34.6602 128.831 34.2502C128.141 31.3502 126.361 28.5802 127.791 25.4202C127.911 25.1602 127.761 24.7702 127.691 24.4502C127.421 23.3102 127.121 22.1702 126.841 21.0202C127.691 20.3502 128.541 19.6702 129.391 19.0002C129.971 18.9502 130.611 19.0302 131.131 18.8302C133.001 18.0802 134.421 18.1902 134.971 20.4802C135.041 20.7802 135.311 21.0502 135.531 21.2902C137.391 23.2602 138.821 25.3602 138.521 28.3102C138.391 29.6102 138.831 30.9502 138.901 32.2802C138.981 33.7902 139.541 35.4702 137.621 36.4302C137.321 36.5802 137.041 37.5202 137.161 37.6302C137.551 37.9702 138.141 38.2702 138.651 38.2802C141.261 38.3402 143.871 38.3102 146.481 38.3102C146.631 38.0902 146.781 37.8702 146.931 37.6502C146.391 37.1402 145.841 36.6202 145.301 36.1102C144.731 35.5702 143.841 35.1202 143.671 34.4802L143.651 34.4702Z" fill="#D6CDA2"/>
<path d="M22.0205 29.73C21.9505 29.23 22.1105 28.69 22.0005 28.21C21.7105 26.93 21.3205 25.67 20.9205 24.21C20.9805 24.16 21.6205 23.89 21.6805 23.53C22.0905 21.05 22.5305 18.55 22.5905 16.05C22.6105 15.34 21.4305 14.05 20.7205 13.99C19.1605 13.85 17.5505 14.33 15.9505 14.56C15.6205 14.74 15.2805 14.92 14.9505 15.1C19.9905 16.77 20.1905 19.74 17.9705 23.36C15.7905 23.91 15.0905 25.61 16.3805 27.85C16.6305 28.29 16.8905 28.72 17.1405 29.16C18.4705 31.47 18.2305 32.7 16.2005 34.04C13.7105 35.69 10.4505 35.87 9.51047 34.09C8.53047 32.24 8.17047 30.08 7.50047 28.06C6.46047 24.93 6.46047 21.99 8.36047 19.06C9.75047 16.92 8.13047 14.42 5.54047 14.35C3.96047 14.31 2.38047 14.35 -0.0195312 14.35C1.00047 15.58 1.45047 16.66 2.07047 16.78C3.97047 17.12 3.76047 18.38 3.66047 19.63C3.56047 21.04 3.37047 22.45 3.18047 23.85C3.09047 24.48 3.08047 25.29 2.70047 25.68C1.06047 27.36 1.23047 28.84 2.72047 30.51C3.14047 30.98 3.10047 31.9 3.18047 32.62C3.48047 35.28 5.44047 37.94 7.69047 38.25C10.8405 38.68 13.8205 38.14 16.3805 36.05C16.8605 35.66 17.4205 35.36 18.1605 34.89C18.7005 38.2 20.8205 38.59 23.2605 38.3C24.9705 38.09 26.7405 37.83 27.1205 35.73C25.5905 35.35 23.5805 35.43 22.9405 34.54C22.0705 33.33 22.2405 31.38 22.0005 29.74L22.0205 29.73Z" fill="#D6CDA2"/>
<path d="M59.8502 25.6101C64.9102 25.0501 69.9602 24.4801 75.0302 24.1001C77.1302 23.9401 77.6202 22.8901 77.4202 21.1201C77.3402 20.3901 77.1602 19.6701 76.9702 18.9601C76.3102 16.5001 72.9502 12.9501 71.1402 13.4601C68.5802 14.1801 65.6302 12.3601 63.4002 14.7501C63.2302 14.9301 62.7502 14.8301 62.4202 14.8601C56.6102 15.3401 52.5502 19.0401 52.0902 24.7001C51.9402 26.6101 52.8302 28.5801 52.9802 30.5401C53.2802 34.6301 55.9302 36.7201 59.3002 38.1201C64.0902 40.1001 74.0102 37.1001 77.0202 32.8401C77.2802 32.4701 77.1602 31.8301 77.2802 30.8301C76.1102 31.5901 75.4202 32.1501 74.6402 32.5201C72.0002 33.7901 69.4402 35.4701 66.6402 36.1201C62.4602 37.1001 56.8902 32.4401 57.8102 26.3301C58.4802 26.0801 59.1502 25.6801 59.8502 25.6001V25.6101ZM57.3802 23.6901C58.4002 18.0901 60.0202 15.9901 63.8402 16.0301C65.3002 16.0401 66.9402 16.9401 68.1402 17.8901C69.2502 18.7701 69.8702 20.2501 70.8702 21.7201C66.0702 22.4501 62.0502 25.1901 57.3902 23.7001L57.3802 23.6901Z" fill="#D6CDA2"/>
<path d="M40.4905 23.4201C38.6805 23.0001 36.8505 21.7201 35.5505 20.3401C33.7905 18.4701 34.7105 16.7101 37.2705 16.4201C41.3305 15.9601 42.4105 16.6201 43.9305 20.6501C45.0405 19.9401 47.3605 21.6501 47.3205 19.0401C47.3005 17.8401 46.0505 15.9501 44.9705 15.6001C39.7905 13.9001 34.6305 13.8401 30.1805 17.6801C29.5805 18.2001 29.2905 19.3001 29.2305 20.1501C29.1605 21.1301 29.5205 22.1501 29.7805 23.6601C32.5205 24.9501 35.7105 26.4301 38.8905 27.9401C40.1605 28.5401 41.7205 28.9401 42.5805 29.9201C43.5205 30.9901 44.2605 32.6501 44.2005 34.0101C44.1605 34.9201 42.7305 36.1701 41.6605 36.5801C38.4305 37.8001 35.8505 36.1101 35.2505 32.6101C34.9505 30.8501 33.8805 30.3401 32.3705 30.8901C31.7005 31.1301 30.7005 32.0001 30.7705 32.4401C31.0005 33.8301 31.2605 35.6801 32.2105 36.3901C36.0405 39.2101 41.9705 40.1501 46.2305 36.9101C48.9605 34.8401 50.1005 30.8001 47.7705 28.4401C45.7405 26.3901 43.6805 24.1801 40.4905 23.4401V23.4201Z" fill="#D6CDA2"/>
<path d="M262.371 21.0698C261.621 21.0998 260.911 21.9698 260.181 22.4498C260.921 22.9798 261.621 23.9198 262.391 23.9698C265.171 24.1498 267.981 24.0398 270.771 24.0398C272.761 24.0398 273.431 23.0298 273.071 20.9998C269.451 20.9998 265.901 20.9198 262.361 21.0698H262.371Z" fill="#D6CDA2"/>
<path d="M288.591 31.8297C287.361 28.9897 285.331 26.1297 286.901 22.6697C287.141 22.1397 286.831 21.3497 286.761 20.6897C286.621 19.3097 286.481 17.9397 286.371 16.8397C287.521 16.4497 288.271 16.1997 289.011 15.9397C289.881 15.8997 290.761 15.8597 291.631 15.8197C291.631 15.7297 291.651 15.6297 291.651 15.5397C290.571 15.3897 289.491 15.2297 288.411 15.0797C288.111 14.9297 287.791 14.6197 287.511 14.6597C283.831 15.1397 283.711 11.7897 282.411 9.80971C282.081 9.30971 282.461 8.10971 282.861 7.44971C283.061 7.10971 284.051 7.25971 284.671 7.15971C285.421 7.02971 286.171 6.86971 286.921 6.72971C286.111 5.78971 285.261 5.60971 284.631 5.14971C282.711 3.71971 280.411 3.50971 278.931 5.00971C277.611 6.34971 276.321 8.54971 278.401 10.6997C278.921 11.2397 279.031 12.1997 279.291 12.8897C278.511 13.5797 277.801 14.2097 276.631 15.2497C278.011 15.7697 278.911 16.0497 279.751 16.4397C280.431 16.7597 281.421 17.0797 281.631 17.6397C282.081 18.8597 282.231 20.2197 282.301 21.5397C282.511 25.3097 282.611 29.0797 282.771 33.0597C282.271 33.4997 281.391 34.2797 280.501 35.0597C280.651 35.2897 280.801 35.5197 280.951 35.7597C284.241 35.7597 287.541 35.8297 290.831 35.6997C291.461 35.6697 292.071 34.8597 292.641 34.4397C290.991 33.4397 289.071 32.9497 288.581 31.8397L288.591 31.8297Z" fill="#D6CDA2"/>
<path d="M247.491 14.4202V15.7502C246.031 15.9502 244.937 16.8735 244.211 18.5202C242.071 17.1002 240.331 18.1302 238.501 19.3102C237.291 20.0902 235.881 20.5602 234.561 21.1802C234.231 21.3002 233.891 21.4102 233.561 21.5302C233.711 21.7102 233.861 21.8902 234.021 22.0702C234.181 22.2302 234.341 22.3902 234.511 22.5602C234.801 23.0202 235.081 23.4802 235.371 23.9502C238.561 21.2902 238.751 27.4702 241.711 25.4502C241.241 28.6302 244.331 32.1402 239.671 33.8602C239.471 34.6002 239.261 35.3302 238.941 36.5202C242.611 36.2502 245.721 36.0202 248.821 35.7902C249.491 35.4602 250.161 35.1302 250.831 34.8002C250.331 34.2702 249.911 33.4102 249.321 33.2702C247.651 32.8902 247.211 31.9202 247.261 30.3802C247.331 28.2802 247.331 26.1802 247.241 24.0802C247.171 22.5102 246.601 21.4002 244.651 21.4702C243.851 21.5002 243.031 20.8502 242.211 20.5102C242.251 20.2802 242.301 20.0502 242.341 19.8202C242.951 19.6702 243.551 19.5202 244.161 19.3702C245.621 18.7302 247.051 17.6502 248.541 17.5802C250.231 17.5002 251.961 18.3102 253.671 18.7302C253.911 16.7202 252.101 15.4002 247.501 14.4102L247.491 14.4202Z" fill="#D6CDA2"/>
<path d="M320.18 33.21C317.08 32.44 313.92 31.9 310.84 31.08C309.89 30.83 309.1 29.95 308.16 29.31C308.67 28.58 309.04 28.05 309.44 27.47C308.64 27.03 307.95 26.65 307.27 26.27C309.48 23.16 311.61 20.16 313.69 17.25C310.9 14.18 308.27 18.1 305.49 17.13C305.92 17.77 306.39 18.29 306.96 18.45C307.6 18.63 308.34 18.49 309.48 18.49C308.29 20.16 307.39 21.42 306.5 22.67C306.23 22.74 305.96 22.8 305.69 22.87C305.53 19.29 300.66 19.33 300.59 15.52C298.3 14.23 295.75 13.55 292.87 15.62C294.52 16.31 296.09 16.55 297.02 17.45C298.54 18.94 299.8 20.76 300.88 22.61C301.59 23.83 302.49 25.63 302.07 26.68C301.06 29.24 301.06 32.68 297.45 33.62C297.08 33.72 296.69 34.44 296.67 34.89C296.67 35.16 297.35 35.68 297.74 35.7C300.02 35.78 302.31 35.78 304.6 35.7C304.97 35.69 305.5 35.19 305.61 34.81C305.7 34.52 305.34 33.84 305.02 33.71C302.48 32.7 303.06 31.37 304.55 29.9C305.33 30.35 306.16 31.25 306.89 31.17C309.39 30.89 309.56 32.93 310.48 34.29C310.85 34.84 311.38 35.67 311.88 35.69C314.67 35.82 317.47 35.82 320.26 35.69C320.85 35.66 321.4 34.95 321.97 34.55C321.38 34.09 320.86 33.38 320.19 33.21H320.18Z" fill="#D6CDA2"/>
<path d="M208.58 28.3298C210.46 28.7198 212.35 29.1198 214.77 29.6298C215.03 29.6098 215.99 29.3198 216.86 29.4898C219.74 30.0398 220.16 29.7898 220.84 26.8898C221 26.2298 221.49 25.6498 221.77 25.1398C220.54 23.9198 219.39 22.7798 217.85 21.2598C215.93 21.0398 213.5 20.8898 211.11 20.4698C205.37 19.4798 200.73 21.2898 198.09 25.6898C196.79 27.8598 197.28 29.2898 199.51 29.9298C199.7 29.9898 199.8 30.3298 199.97 30.5098C201.08 31.6698 202.19 32.8198 203.79 34.4798C202.09 36.2998 200.35 38.1598 198.66 39.9698C201.99 40.7998 202.42 40.6098 203.57 37.6798C205.01 37.8098 206.48 37.9398 207.95 38.0798C207.7 37.8298 207.44 37.5698 207.19 37.3198C207.93 36.6798 208.68 36.0498 209.34 35.4798C205.62 34.2198 207.47 31.3798 208.57 28.3198L208.58 28.3298ZM201.99 26.1898C203.86 22.5498 204.59 22.0098 208.79 22.6098C211.25 22.9598 213.54 23.2398 215.83 22.0598C216.14 21.8998 216.62 22.0898 217.05 22.1198C217.3 23.6898 217.53 25.1498 217.86 27.2698C212.56 26.0798 207.33 28.7398 201.98 26.1998L201.99 26.1898Z" fill="#D6CDA2"/>
<path d="M194.12 33.1199C193.25 32.7699 192.36 32.0399 191.87 31.2399C190.6 29.1899 189.58 26.9799 188.41 24.8699C187.17 22.6399 186.79 20.2499 187.87 17.9699C188.81 15.9699 190.17 14.1799 189.39 11.7699C189.33 11.5999 189.74 11.0599 189.96 11.0399C193.46 10.6999 195.81 8.10993 198.73 6.63993C200.57 5.71993 200.78 4.03993 200.42 2.43993C200.22 1.53993 199.17 0.31993 198.34 0.16993C196.43 -0.17007 194.42 0.0599305 192.44 0.0599305C192.37 0.31993 192.3 0.57993 192.23 0.82993C193.25 1.56993 194.27 2.30993 195.35 3.09993C195.09 3.43993 194.74 3.86993 194.42 4.31993C194.19 4.64993 190.39 8.60993 190.06 8.88993C188.77 9.99993 186.75 10.3399 187.06 12.9599C187.19 14.0599 185.77 16.2199 184.76 16.4199C181.97 16.9699 182.05 18.7999 182.15 21.1199C177.01 20.3799 171.88 19.2499 168.53 24.5399C169.12 26.1899 169.75 27.9399 170.29 29.4199C171.74 30.4099 173.36 31.1299 174.42 32.3399C175.45 33.5199 175.88 35.2199 176.63 36.6599C178.65 40.5299 185.31 41.7699 188.77 38.9399C189.27 39.5299 189.9 40.0599 190.24 40.7299C190.55 41.3299 190.52 42.6899 190.66 42.6899C191.93 42.7199 193.2 42.5199 194.47 42.3899C194.47 42.0899 194.49 41.7799 194.5 41.4799C193.94 41.2699 193.35 40.8299 192.82 40.8899C190.56 41.1699 191.31 39.7999 191.69 38.8199C191.92 38.2399 192.53 37.8099 192.98 37.3099C193.95 37.3099 194.92 37.3099 195.77 37.3099C196.22 35.1999 196.02 33.8599 194.13 33.0999L194.12 33.1199ZM180.94 35.3999C179.76 33.1099 179.12 30.5499 178.08 27.6399C178.06 27.6399 177.67 27.5299 177.28 27.4099C175.64 26.8899 174.63 25.8699 175.15 24.0699C175.69 22.2099 177.32 21.4899 179.01 21.6699C183.55 22.1399 185.3 25.9399 187.44 29.2099C185.98 31.9199 188.77 33.1299 189.45 35.0799C189.62 35.5599 189.29 36.4799 188.87 36.8399C186.79 38.6399 182.26 37.9299 180.95 35.3899L180.94 35.3999Z" fill="#D6CDA2"/>
<path d="M220.22 34.46C219.83 34.37 219.27 34.98 218.79 35.27C217.26 34.39 215.74 33.5 214.01 32.5C213.37 32.75 212.31 33.15 210.44 33.86C211.72 34.49 212.68 35.37 213.23 35.16C215.26 34.4 216.71 35.38 218.26 36.3C223.62 38 231.13 35.62 233.84 30.73C232.27 31.34 231.23 31.6 230.35 32.12C227.21 33.98 224.01 35.34 220.22 34.45V34.46Z" fill="#D6CDA2"/>
<path d="M167.801 36.0898C167.561 34.1298 166.801 32.7398 165.441 31.4298C165.041 31.0498 165.091 30.2098 164.941 29.5698C164.831 29.0898 164.901 28.4398 164.611 28.1398C162.471 25.8998 160.311 23.6798 158.061 21.5498C155.581 19.1998 152.331 19.0298 149.211 19.0898C147.581 19.1198 145.831 19.9698 145.261 21.8898C146.291 22.5098 147.081 23.0998 147.971 23.4998C149.891 24.3798 150.431 23.6698 149.811 21.1198C153.661 19.3998 156.941 21.4298 159.051 26.6798C156.731 27.4398 154.211 27.8598 152.111 29.0398C149.671 30.4198 149.481 33.5698 151.131 36.6698C152.231 38.7598 156.071 40.1198 158.681 39.1198C160.371 38.4698 162.531 38.1798 162.851 35.7798C163.371 36.5098 164.091 37.1798 164.331 37.9998C165.031 40.3298 166.891 39.9498 168.471 39.7698C169.791 39.6198 171.651 39.6698 171.541 37.8698C170.031 37.1998 167.871 36.7798 167.781 36.0998L167.801 36.0898ZM158.221 36.3998C156.201 37.2198 155.091 36.3198 154.351 34.7998C153.461 32.9798 154.351 30.2498 156.061 29.5898C158.031 28.8298 160.141 28.3998 162.821 27.6598C162.821 30.6998 162.821 33.1898 162.821 35.6798C161.271 35.8898 159.621 35.8398 158.221 36.4098V36.3998Z" fill="#D6CDA2"/>
</svg>
