<svg width="32" height="75" viewBox="0 0 32 75" fill="none" xmlns="http://www.w3.org/2000/svg">
<path fill-rule="evenodd" clip-rule="evenodd" d="M0.701871 65.1544C0.256839 65.8729 -3.6577e-07 66.7199 -3.6577e-07 67.6267V70.2922C-3.6577e-07 72.8922 2.11156 75 4.71629 75H15.5209C18.1256 75 20.2372 72.8922 20.2372 70.2922V61.4221L31.4064 40.2715C32.1979 38.7727 32.1979 36.9806 31.4064 35.4817L20.2372 14.3312V4.70783C20.2372 2.10777 18.1256 0 15.5209 0L12.9278 0C10.3231 0 8.21149 2.10777 8.21149 4.70783V5.1769H4.71629C2.11156 5.1769 -3.6577e-07 7.28467 -3.6577e-07 9.88473V12.5502C-3.6577e-07 13.9266 0.591722 15.165 1.53508 16.0259C1.09358 16.5649 0.76095 17.1453 0.51714 17.7294C0.165532 18.5717 -3.6577e-07 19.4513 -3.6577e-07 20.3258V29.4625C-3.6577e-07 30.224 0.130531 30.9779 0.391744 31.6989C0.126036 32.4417 -3.6577e-07 33.2086 -3.6577e-07 33.9717L-3.6577e-07 42.3071C-3.6577e-07 43.0132 0.112193 43.7126 0.336704 44.3854C0.108595 45.078 -3.6577e-07 45.7896 -3.6577e-07 46.4979V55.6345C-3.6577e-07 55.9686 0.0251219 56.3013 0.0753796 56.6303C0.0258547 56.9038 -3.6577e-07 57.1854 -3.6577e-07 57.4732V60.1387C-3.6577e-07 61.0455 0.256846 61.8924 0.701877 62.6109C1.00614 63.1022 1.39837 63.5334 1.85662 63.8827C1.39836 64.232 1.00614 64.6632 0.701871 65.1544ZM18.5222 14.7548V4.70783C18.5222 3.05324 17.1785 1.71194 15.5209 1.71194L12.9278 1.71194C11.2702 1.71194 9.92651 3.05324 9.92651 4.70783V6.88884L4.71629 6.88884C3.05873 6.88884 1.71502 8.23014 1.71502 9.88473V12.5502C1.71502 13.4261 2.08933 14.2122 2.69223 14.7623L3.89008 15.8554L2.86277 17.1095C2.53643 17.5079 2.28627 17.9421 2.10023 18.3878C1.8391 19.0134 1.71502 19.6684 1.71502 20.3258V29.4625C1.71502 30.0275 1.81166 30.5843 2.00455 31.1168L2.21413 31.6953L2.00686 32.2747C1.80964 32.826 1.71502 33.3976 1.71502 33.9717V42.3071C1.71502 42.8312 1.79814 43.3479 1.96383 43.8444L2.14319 44.3819L1.96592 44.9202C1.7966 45.4342 1.71502 45.9649 1.71502 46.4979V55.6345C1.71502 55.8829 1.73368 56.1292 1.7708 56.3723L1.81387 56.6542L1.76304 56.9348C1.73164 57.1083 1.71502 57.288 1.71502 57.4732V60.1387C1.71502 61.1092 2.17551 61.9718 2.89746 62.5221L4.6825 63.8827L2.89744 65.2433C2.17552 65.7936 1.71502 66.6561 1.71502 67.6267V70.2922C1.71502 71.9468 3.05873 73.2881 4.71629 73.2881H15.5209C17.1785 73.2881 18.5222 71.9468 18.5222 70.2922V60.9985L29.8892 39.4732C30.4169 38.474 30.4169 37.2793 29.8892 36.28L18.5222 14.7548Z" fill="#B84F0A"/>
<path d="M15.625 57.1484V59.8516H11.5707V67.4453H15.625V70.1484H4.625V67.4453H8.93071V59.8516H4.625V57.1484H15.625Z" fill="#B84F0A"/>
<path d="M13.3619 45.1514C13.6447 45.1514 13.9066 45.2027 14.1476 45.3054C14.3886 45.4081 14.5928 45.5416 14.7605 45.7059C14.9386 45.8805 15.0747 46.0808 15.169 46.3067C15.2738 46.5429 15.3262 46.7842 15.3262 47.0307L15.3262 57.1514H12.6862L12.6862 47.8163H6.96617L6.96617 57.1514H4.32617L4.32617 47.1385C4.32617 46.8613 4.37855 46.5994 4.48332 46.3529C4.58808 46.1064 4.72427 45.8959 4.89189 45.7213C5.06998 45.5467 5.27427 45.4081 5.50474 45.3054C5.7457 45.2027 5.99189 45.1514 6.24331 45.1514H13.3619Z" fill="#B84F0A"/>
<path d="M15.0156 32.1553V34.7765H6.65563V41.5341H15.0156L15.0156 44.1553H5.97991C5.69705 44.1553 5.43515 44.1048 5.1942 44.0038C4.95324 43.9027 4.74372 43.7664 4.56562 43.5947C4.39801 43.4331 4.26182 43.2361 4.15705 43.0038C4.06277 42.7815 4.01563 42.5492 4.01563 42.3068L4.01563 34.1098C4.01563 33.8371 4.06801 33.5795 4.17277 33.3371C4.27753 33.0947 4.41372 32.8876 4.58134 32.7159C4.75944 32.5442 4.96372 32.4078 5.1942 32.3068C5.43515 32.2058 5.68134 32.1553 5.93277 32.1553H15.0156Z" fill="#B84F0A"/>
<path d="M6.33141 28.4945H12.0514V20.8239H6.33141L6.33141 28.4945ZM12.7271 18.1592C13.01 18.1592 13.2719 18.2105 13.5128 18.3132C13.7538 18.4159 13.9581 18.5494 14.1257 18.7137C14.3038 18.8882 14.44 19.0885 14.5343 19.3144C14.639 19.5506 14.6914 19.7919 14.6914 20.0383L14.6914 29.1722C14.6914 29.4495 14.639 29.7113 14.5343 29.9578C14.4295 30.2042 14.2881 30.4147 14.11 30.5893C13.9424 30.7638 13.7381 30.9025 13.4971 31.0051C13.2666 31.1078 13.0257 31.1592 12.7743 31.1592H5.65569C5.37284 31.1592 5.11093 31.1078 4.86998 31.0051C4.62903 30.9025 4.4195 30.7638 4.24141 30.5893C4.07379 30.425 3.9376 30.2247 3.83284 29.9886C3.73855 29.7627 3.69141 29.5265 3.69141 29.28L3.69141 20.1461C3.69141 19.8689 3.74379 19.607 3.84855 19.3606C3.95331 19.1142 4.0895 18.9037 4.25712 18.7291C4.43522 18.5545 4.6395 18.4159 4.86998 18.3132C5.11093 18.2105 5.35712 18.1592 5.60855 18.1592H12.7271Z" fill="#B84F0A"/>
<path d="M11.7409 10.3446V5.16309H14.3809L14.3809 18.1631H11.7409L11.7409 13.0124H3.38086V10.3446H11.7409Z" fill="#B84F0A"/>
<path d="M27.6475 36.3838C28.1305 37.2714 28.1305 38.3458 27.6475 39.2334L21.5889 50.3672C21.1705 51.1361 20.0098 50.8369 20.0098 49.9601V25.6571C20.0098 24.7803 21.1705 24.4811 21.5889 25.25L27.6475 36.3838Z" fill="#B84F0A"/>
</svg>
